<svg width="20" height="20" viewBox="0 0 20 20" fill="none" xmlns="http://www.w3.org/2000/svg">
<path fill-rule="evenodd" clip-rule="evenodd" d="M3.77963 2.71963C3.48679 2.42679 3.01199 2.42679 2.71915 2.71963C2.4263 3.01248 2.4263 3.48728 2.71915 3.78012L4.45392 5.51489C1.73794 7.29208 0.999756 9.99876 0.999756 9.99876C0.999756 9.99876 2.63585 15.9978 9.99829 15.9978C11.6609 15.9978 13.0315 15.6918 14.1572 15.2182L16.2169 17.2779C16.5098 17.5708 16.9846 17.5708 17.2774 17.2779C17.5703 16.9851 17.5703 16.5103 17.2774 16.2174L3.77963 2.71963ZM12.9924 14.0534L12.066 13.127C11.4733 13.5195 10.7625 13.7481 9.99829 13.7481C7.92756 13.7481 6.2489 12.0695 6.2489 9.99876C6.2489 9.23458 6.47752 8.52379 6.87009 7.93106L5.54228 6.60326C4.83479 7.02188 4.28619 7.51372 3.86045 7.99404C3.30815 8.61715 2.94602 9.24208 2.72393 9.7074C2.67279 9.81456 2.62948 9.91241 2.59333 9.99876C2.62948 10.0851 2.67279 10.183 2.72393 10.2901C2.94602 10.7554 3.30815 11.3804 3.86045 12.0035C4.93354 13.2141 6.78725 14.498 9.99829 14.498C11.1668 14.498 12.1556 14.328 12.9924 14.0534ZM7.96789 9.02887C7.82735 9.32254 7.74866 9.65146 7.74866 9.99876C7.74866 11.2412 8.75585 12.2484 9.99829 12.2484C10.3456 12.2484 10.6745 12.1697 10.9682 12.0292L7.96789 9.02887Z" fill="#A8B3BD"/>
<path d="M18.9966 9.99415C18.9369 9.78385 17.2281 4.00003 9.9983 4.00003C8.99698 4.00003 8.10157 4.11098 7.30177 4.30269L8.58801 5.58893C9.02633 5.53124 9.49569 5.49979 9.9983 5.49979C13.2099 5.49979 15.064 6.78391 16.1373 7.99483C16.6897 8.61806 17.0519 9.24311 17.2741 9.70852C17.3252 9.81574 17.3686 9.91364 17.4047 10C17.3686 10.0864 17.3252 10.1843 17.2741 10.2915C17.0519 10.757 16.6897 11.382 16.1373 12.0052C15.9692 12.1949 15.782 12.3863 15.5734 12.5743L16.6349 13.6358C18.4063 12.0106 18.963 10.1243 18.9966 10.0059V9.99415Z" fill="#A8B3BD"/>
<path d="M13.6857 10.6867C13.7269 10.4642 13.7484 10.2349 13.7484 10.0005C13.7484 7.92947 12.0694 6.25053 9.99836 6.25053C9.76401 6.25053 9.53468 6.27203 9.31223 6.31316L10.9688 7.96972C11.4319 8.19144 11.8074 8.56694 12.0292 9.03009L13.6857 10.6867Z" fill="#A8B3BD"/>
</svg>
