<svg width="4" height="16" viewBox="0 0 4 16" fill="none" xmlns="http://www.w3.org/2000/svg">
<g clip-path="url(#clip0_91_6088)">
<path d="M1.75 9.3125C1.02594 9.3125 0.4375 8.72406 0.4375 8V2.09375C0.4375 1.36969 1.02594 0.78125 1.75 0.78125C2.47406 0.78125 3.0625 1.36969 3.0625 2.09375V8C3.0625 8.72406 2.47406 9.3125 1.75 9.3125Z" fill="#21D7FF"/>
<path d="M1.75 9.75C0.785313 9.75 0 8.96469 0 8V2.09375C0 1.12906 0.785313 0.34375 1.75 0.34375C2.71469 0.34375 3.5 1.12906 3.5 2.09375V8C3.5 8.96469 2.71469 9.75 1.75 9.75ZM1.75 1.21875C1.26656 1.21875 0.875 1.61031 0.875 2.09375V8C0.875 8.48344 1.26656 8.875 1.75 8.875C2.23344 8.875 2.625 8.48344 2.625 8V2.09375C2.625 1.61031 2.23344 1.21875 1.75 1.21875Z" fill="#21D7FF"/>
<path d="M1.75 15.2188C1.02594 15.2188 0.4375 14.6303 0.4375 13.9063V8C0.4375 7.27594 1.02594 6.6875 1.75 6.6875C2.47406 6.6875 3.0625 7.27594 3.0625 8V13.9063C3.0625 14.6303 2.47406 15.2188 1.75 15.2188Z" fill="#246DFF"/>
<path d="M1.75 15.6562C0.785313 15.6562 0 14.8709 0 13.9062V8C0 7.03531 0.785313 6.25 1.75 6.25C2.71469 6.25 3.5 7.03531 3.5 8V13.9062C3.5 14.8709 2.71469 15.6562 1.75 15.6562ZM1.75 7.125C1.26656 7.125 0.875 7.51656 0.875 8V13.9062C0.875 14.3897 1.26656 14.7812 1.75 14.7812C2.23344 14.7812 2.625 14.3897 2.625 13.9062V8C2.625 7.51656 2.23344 7.125 1.75 7.125Z" fill="#246DFF"/>
</g>
<defs>
<clipPath id="clip0_91_6088">
<rect width="3.5" height="15.3218" fill="white" transform="translate(0 0.338867)"/>
</clipPath>
</defs>
</svg>
