<svg width="97" height="80" viewBox="0 0 97 80" fill="none" xmlns="http://www.w3.org/2000/svg">
<rect x="0.166016" width="23" height="5" rx="2.5" fill="#EAE3F2"/>
<rect x="27.166" width="47" height="5" rx="2.5" fill="#EAE3F2"/>
<rect x="78.166" width="16" height="5" rx="2.5" fill="#FF19F5"/>
<rect x="0.166016" y="16" width="49" height="5" rx="2.5" fill="#FF19F5"/>
<rect x="53.166" y="16" width="42" height="5" rx="2.5" fill="#EAE3F2"/>
<rect x="0.166016" y="32" width="26" height="5" rx="2.5" fill="#EAE3F2"/>
<rect x="30.166" y="32" width="49" height="5" rx="2.5" fill="#EAE3F2"/>
<rect x="83.166" y="32" width="13" height="5" rx="2.5" fill="#EAE3F2"/>
<rect x="0.166016" y="48" width="36" height="5" rx="2.5" fill="#EAE3F2"/>
<rect x="40.166" y="48" width="36" height="5" rx="2.5" fill="#FF19F5"/>
<rect x="80.166" y="48" width="16" height="5" rx="2.5" fill="#EAE3F2"/>
<rect x="0.166016" y="64" width="49" height="5" rx="2.5" fill="#EAE3F2"/>
<rect x="53.166" y="64" width="43" height="5" rx="2.5" fill="#EAE3F2"/>
</svg>
