<svg width="428" height="411" viewBox="0 0 428 411" fill="none" xmlns="http://www.w3.org/2000/svg">
<path d="M208.656 269.631C204.68 271.078 200.32 271.078 196.344 269.631L161.494 256.947C157.517 255.499 154.178 252.697 152.062 249.032L133.519 216.915C131.403 213.25 130.646 208.956 131.381 204.789L137.821 168.266C138.555 164.099 140.735 160.323 143.977 157.603L172.387 133.764C175.628 131.044 179.725 129.553 183.957 129.553L221.043 129.553C225.275 129.553 229.372 131.044 232.613 133.764L261.023 157.603C264.265 160.323 266.445 164.099 267.179 168.266L273.619 204.789C274.354 208.956 273.597 213.25 271.481 216.915L252.938 249.032C250.822 252.697 247.483 255.499 243.506 256.947L208.656 269.631Z" fill="white" stroke="url(#paint0_linear_3525_18425)" stroke-width="4"/>
<path d="M193.205 197V186.395H195.705V197H193.205ZM194.475 184.891C193.693 184.891 193.029 184.285 193.029 183.523C193.029 182.781 193.693 182.176 194.475 182.176C195.275 182.176 195.92 182.781 195.92 183.523C195.92 184.285 195.275 184.891 194.475 184.891ZM200.119 186.395L202.268 190.32L204.455 186.395H207.092L203.889 191.688L207.15 197H204.533L202.268 193.172L200.061 197H197.404L200.646 191.688L197.482 186.395H200.119ZM208.85 197V186.395H211.35V197H208.85ZM210.119 184.891C209.338 184.891 208.674 184.285 208.674 183.523C208.674 182.781 209.338 182.176 210.119 182.176C210.92 182.176 211.564 182.781 211.564 183.523C211.564 184.285 210.92 184.891 210.119 184.891ZM167.084 207.31C166.997 206.401 166.22 205.874 165.078 205.874C163.876 205.874 163.144 206.46 163.144 207.251C163.144 208.145 164.082 208.511 164.96 208.716L165.957 208.979C167.539 209.346 169.062 210.181 169.062 212.026C169.062 213.887 167.597 215.161 165.048 215.161C162.573 215.161 161.02 213.975 160.932 211.88H162.807C162.895 212.993 163.833 213.535 165.034 213.535C166.293 213.535 167.158 212.92 167.158 212.012C167.158 211.177 166.381 210.825 165.239 210.532L164.038 210.225C162.294 209.771 161.21 208.892 161.21 207.368C161.21 205.493 162.88 204.248 165.107 204.248C167.363 204.248 168.886 205.522 168.916 207.31H167.084ZM174.086 215.161C171.684 215.161 170.219 213.564 170.219 211.074C170.219 208.613 171.713 206.943 173.984 206.943C175.932 206.943 177.617 208.159 177.617 210.957V211.543H172.065C172.087 212.898 172.885 213.696 174.101 213.696C174.921 213.696 175.478 213.345 175.712 212.876H177.543C177.207 214.253 175.932 215.161 174.086 215.161ZM172.08 210.269H175.83C175.815 209.185 175.097 208.394 174.013 208.394C172.885 208.394 172.138 209.25 172.08 210.269ZM179.067 215V207.046H180.883V208.364H180.971C181.25 207.456 182.026 206.929 182.934 206.929C183.139 206.929 183.432 206.943 183.608 206.973V208.701C183.447 208.643 183.051 208.584 182.744 208.584C181.704 208.584 180.942 209.302 180.942 210.312V215H179.067ZM192.075 207.046L189.233 215H187.182L184.34 207.046H186.333L188.164 212.964H188.251L190.097 207.046H192.075ZM193.247 215V207.046H195.122V215H193.247ZM194.199 205.918C193.613 205.918 193.115 205.464 193.115 204.893C193.115 204.336 193.613 203.882 194.199 203.882C194.799 203.882 195.283 204.336 195.283 204.893C195.283 205.464 194.799 205.918 194.199 205.918ZM200.38 215.161C198.007 215.161 196.572 213.462 196.572 211.06C196.572 208.628 198.051 206.943 200.38 206.943C202.314 206.943 203.662 208.071 203.793 209.785H202.006C201.86 209.023 201.303 208.438 200.395 208.438C199.238 208.438 198.461 209.419 198.461 211.016C198.461 212.656 199.223 213.638 200.395 213.638C201.23 213.638 201.845 213.154 202.006 212.29H203.793C203.647 213.975 202.373 215.161 200.38 215.161ZM208.73 215.161C206.328 215.161 204.863 213.564 204.863 211.074C204.863 208.613 206.357 206.943 208.627 206.943C210.576 206.943 212.26 208.159 212.26 210.957V211.543H206.708C206.73 212.898 207.529 213.696 208.745 213.696C209.565 213.696 210.122 213.345 210.356 212.876H212.187C211.85 214.253 210.576 215.161 208.73 215.161ZM206.723 210.269H210.473C210.458 209.185 209.741 208.394 208.657 208.394C207.529 208.394 206.782 209.25 206.723 210.269ZM218.706 215H216.669L220.405 204.395H222.749L226.499 215H224.462L223.583 212.378H219.584L218.706 215ZM220.097 210.84H223.071L221.621 206.562H221.533L220.097 210.84ZM227.758 215V204.395H231.743C234.174 204.395 235.478 205.874 235.478 207.91C235.478 209.946 234.16 211.411 231.713 211.411H229.663V215H227.758ZM229.663 209.844H231.45C232.885 209.844 233.53 209.038 233.53 207.91C233.53 206.768 232.885 205.991 231.45 205.991H229.663V209.844ZM238.92 204.395V215H237.016V204.395H238.92ZM245.322 209.316C245.205 208.716 244.707 208.335 243.916 208.335C243.11 208.335 242.524 208.73 242.539 209.272C242.524 209.683 242.861 209.99 243.667 210.181L245.014 210.459C246.523 210.796 247.241 211.484 247.255 212.627C247.241 214.121 245.937 215.161 243.857 215.161C241.835 215.161 240.634 214.253 240.444 212.729H242.348C242.465 213.403 242.993 213.74 243.857 213.74C244.75 213.74 245.351 213.374 245.351 212.788C245.351 212.334 244.985 212.041 244.194 211.865L242.919 211.587C241.44 211.294 240.678 210.518 240.678 209.375C240.678 207.91 241.938 206.943 243.886 206.943C245.791 206.943 246.962 207.866 247.094 209.316H245.322Z" fill="#333333"/>
<g clip-path="url(#clip0_3525_18425)">
<path d="M102.191 144.377L111.357 141.559L109.648 144.785L134.644 158.453L131.714 163.984L106.718 150.316L105.009 153.542L102.191 144.377Z" fill="#BF9BED"/>
</g>
<g clip-path="url(#clip1_3525_18425)">
<path d="M161.053 92.6882L169.939 96.2922L166.576 97.7142L177.324 124.098L171.559 126.536L160.812 100.152L157.449 101.574L161.053 92.6882Z" fill="#BF9BED"/>
</g>
<g clip-path="url(#clip2_3525_18425)">
<path d="M241.432 91.3135L245.475 100.008L242.046 98.7557L231.922 125.385L226.043 123.239L236.167 96.6094L232.737 95.3574L241.432 91.3135Z" fill="#BF9BED"/>
</g>
<g clip-path="url(#clip3_3525_18425)">
<path d="M298.447 135.192L297.558 144.74L295.227 141.93L273.062 159.829L269.066 155.012L291.23 137.113L288.899 134.304L298.447 135.192Z" fill="#BF9BED"/>
</g>
<g clip-path="url(#clip4_3525_18425)">
<path d="M314.963 217.955L307.258 223.664L307.796 220.053L279.675 215.485L280.597 209.295L308.717 213.862L309.255 210.251L314.963 217.955Z" fill="#BF9BED"/>
</g>
<g clip-path="url(#clip5_3525_18425)">
<path d="M279.922 283.291L270.341 282.895L273.027 280.423L254.011 259.209L258.615 254.97L277.632 276.183L280.318 273.711L279.922 283.291Z" fill="#BF9BED"/>
</g>
<path d="M203.218 313.758L196.439 306.977L200.09 306.977L200.473 278.491L206.732 278.492L206.348 306.978L209.999 306.979L203.218 313.758Z" fill="#BF9BED"/>
<g clip-path="url(#clip6_3525_18425)">
<path d="M135.601 292.78L133.067 283.532L136.239 285.339L150.669 260.776L156.107 263.874L141.677 288.438L144.849 290.245L135.601 292.78Z" fill="#BF9BED"/>
</g>
<g clip-path="url(#clip7_3525_18425)">
<path d="M91.6589 224.312L95.753 215.642L96.9851 219.078L123.928 209.82L126.04 215.711L99.0975 224.97L100.33 228.406L91.6589 224.312Z" fill="#BF9BED"/>
</g>
<g clip-path="url(#clip8_3525_18425)">
<path d="M69.0796 160.444C64.5466 162.322 59.4534 162.322 54.9203 160.444L38.4079 153.604C33.8749 151.727 30.2734 148.125 28.3957 143.592L21.5561 127.08C19.6784 122.547 19.6784 117.453 21.5561 112.92L28.3958 96.4079C30.2734 91.8749 33.8749 88.2734 38.4079 86.3958L54.9204 79.5561C59.4534 77.6784 64.5466 77.6784 69.0796 79.5561L85.5921 86.3958C90.1251 88.2734 93.7266 91.8749 95.6042 96.4079L102.444 112.92C104.322 117.453 104.322 122.547 102.444 127.08L95.6042 143.592C93.7266 148.125 90.1251 151.727 85.5921 153.604L69.0796 160.444Z" fill="white" stroke="#EDDEFF" stroke-width="3"/>
<path d="M48.0527 114.395V125H46.4414V114.395H48.0527ZM50.2061 125V114.395H53.9854C56.4463 114.395 57.6621 115.874 57.6621 117.837C57.6621 119.785 56.4463 121.279 53.9854 121.279H51.8174V125H50.2061ZM51.8174 119.902H53.8242C55.3916 119.902 56.0361 119.023 56.0361 117.837C56.0361 116.636 55.3916 115.771 53.8242 115.771H51.8174V119.902ZM58.834 115.786V114.395H67.0518V115.786H63.7559V125H62.1445V115.786H58.834ZM69.6299 114.395L72.5742 123.022H72.6914L75.6357 114.395H77.3789L73.5557 125H71.6953L67.8867 114.395H69.6299Z" fill="#666666"/>
</g>
<g clip-path="url(#clip9_3525_18425)">
<path d="M52.0796 273.444C47.5466 275.322 42.4534 275.322 37.9203 273.444L21.4079 266.604C16.8749 264.727 13.2734 261.125 11.3957 256.592L4.55606 240.08C2.67842 235.547 2.67843 230.453 4.55607 225.92L11.3958 209.408C13.2734 204.875 16.8749 201.273 21.4079 199.396L37.9204 192.556C42.4534 190.678 47.5466 190.678 52.0796 192.556L68.5921 199.396C73.1251 201.273 76.7266 204.875 78.6042 209.408L85.4439 225.92C87.3216 230.453 87.3216 235.547 85.4439 240.08L78.6042 256.592C76.7266 261.125 73.1251 264.727 68.5921 266.604L52.0796 273.444Z" fill="white" stroke="#EDDEFF" stroke-width="3"/>
<path d="M43.5166 233.532V234.675H40.4697V239.245H39.0635V234.675H35.9287V239.245H34.4932V234.675H31.5049V233.532H43.5166ZM37.4814 226.618C40.25 226.618 42.1543 227.746 42.1543 229.519C42.1543 231.262 40.25 232.375 37.4814 232.36C34.6982 232.375 32.8086 231.262 32.8086 229.519C32.8086 227.746 34.6982 226.618 37.4814 226.618ZM37.4814 227.731C35.5332 227.746 34.2295 228.42 34.2441 229.519C34.2295 230.588 35.5332 231.262 37.4814 231.262C39.4297 231.262 40.7334 230.588 40.7334 229.519C40.7334 228.42 39.4297 227.746 37.4814 227.731ZM56.4512 232.595V233.723H44.4834V232.595H49.7715V231.159H45.9775V226.647H54.9863V227.761H47.3691V230.017H55.1182V231.159H51.1631V232.595H56.4512ZM55.001 234.88V239.318H53.624V236.008H45.8164V234.88H55.001Z" fill="#666666"/>
</g>
<g clip-path="url(#clip10_3525_18425)">
<path d="M109.08 370.444C104.547 372.322 99.4534 372.322 94.9203 370.444L78.4079 363.604C73.8749 361.727 70.2734 358.125 68.3957 353.592L61.5561 337.08C59.6784 332.547 59.6784 327.453 61.5561 322.92L68.3958 306.408C70.2734 301.875 73.8749 298.273 78.4079 296.396L94.9204 289.556C99.4534 287.678 104.547 287.678 109.08 289.556L125.592 296.396C130.125 298.273 133.727 301.875 135.604 306.408L142.444 322.92C144.322 327.453 144.322 332.547 142.444 337.08L135.604 353.592C133.727 358.125 130.125 361.727 125.592 363.604L109.08 370.444Z" fill="white" stroke="#EDDEFF" stroke-width="3"/>
<path d="M80.2139 325.288V326.416H73.6953V325.288H76.2734V323.501H77.6504V325.288H80.2139ZM76.9619 327.207C78.6318 327.207 79.8037 328.452 79.8184 330.225C79.8037 332.012 78.6318 333.271 76.9619 333.271C75.3213 333.271 74.1055 332.012 74.1201 330.225C74.1055 328.452 75.3213 327.207 76.9619 327.207ZM76.9619 328.364C76.0098 328.364 75.3506 329.141 75.3506 330.225C75.3506 331.338 76.0098 332.085 76.9619 332.085C77.8994 332.085 78.5879 331.338 78.5879 330.225C78.5879 329.141 77.8994 328.364 76.9619 328.364ZM84.96 323.12V336.245H83.6416V329.727H82.1328V335.63H80.8145V323.413H82.1328V328.584H83.6416V323.12H84.96ZM91.5225 326.987C91.5225 329.185 92.958 331.455 94.9795 332.319L94.2178 333.403C92.6724 332.722 91.4419 331.279 90.834 329.521C90.2261 331.396 88.9883 332.993 87.4648 333.74L86.6592 332.642C88.6367 331.719 90.1016 329.243 90.1162 326.987V325.596H87.1133V324.438H94.5107V325.596H91.5225V326.987ZM97.5576 323.12V336.245H96.166V323.12H97.5576ZM109.394 331.294C112.104 331.294 113.744 332.202 113.744 333.755C113.744 335.322 112.104 336.23 109.394 336.245C106.654 336.23 104.984 335.322 104.984 333.755C104.984 332.202 106.654 331.294 109.394 331.294ZM109.394 332.393C107.489 332.393 106.361 332.876 106.376 333.755C106.361 334.634 107.489 335.132 109.394 335.132C111.283 335.132 112.382 334.634 112.382 333.755C112.382 332.876 111.283 332.393 109.394 332.393ZM113.627 323.12V326.328H115.531V327.515H113.627V330.957H112.235V323.12H113.627ZM105.189 323.94V325.83H108.632V323.94H110.009V330.034H103.827V323.94H105.189ZM105.189 328.921H108.632V326.929H105.189V328.921ZM119.838 324.102C121.618 324.102 122.921 325.61 123.134 328.042H125.844V323.12H127.221V336.274H125.844V329.17H123.148C122.995 331.726 121.662 333.315 119.838 333.315C117.875 333.315 116.498 331.528 116.513 328.701C116.498 325.889 117.875 324.102 119.838 324.102ZM119.838 325.347C118.651 325.347 117.831 326.636 117.831 328.701C117.831 330.781 118.651 332.07 119.838 332.07C121.024 332.07 121.845 330.781 121.845 328.701C121.845 326.636 121.024 325.347 119.838 325.347Z" fill="#666666"/>
</g>
<g clip-path="url(#clip11_3525_18425)">
<path d="M214.08 403.444C209.547 405.322 204.453 405.322 199.92 403.444L183.408 396.604C178.875 394.727 175.273 391.125 173.396 386.592L166.556 370.08C164.678 365.547 164.678 360.453 166.556 355.92L173.396 339.408C175.273 334.875 178.875 331.273 183.408 329.396L199.92 322.556C204.453 320.678 209.547 320.678 214.08 322.556L230.592 329.396C235.125 331.273 238.727 334.875 240.604 339.408L247.444 355.92C249.322 360.453 249.322 365.547 247.444 370.08L240.604 386.592C238.727 391.125 235.125 394.727 230.592 396.604L214.08 403.444Z" fill="white" stroke="#EDDEFF" stroke-width="3"/>
<path d="M200.758 348.277V349.42H195.982V351.954H200.494V353.067H195.982V356.012C198.172 356.004 199.791 355.909 201.695 355.602L201.827 356.729C199.806 357.066 198.048 357.14 195.631 357.14H194.576V348.277H200.758ZM204.244 347.12V352.291H206.354V353.463H204.244V360.245H202.853V347.12H204.244ZM218.175 347.135V355.807H216.856V347.135H218.175ZM215.509 347.398V354.679H214.19V352.042H211.788C210.975 353.441 209.642 354.562 207.76 355.396L207.042 354.356C209.657 353.258 211.07 351.588 211.319 349.42H207.628V348.307H212.74C212.733 349.244 212.594 350.116 212.315 350.914H214.19V347.398H215.509ZM214.396 355.602C214.381 357.257 216.358 358.722 218.834 359.088L218.292 360.187C216.263 359.85 214.513 358.846 213.692 357.433C212.865 358.846 211.122 359.85 209.093 360.187L208.551 359.088C211.041 358.722 212.989 357.257 212.989 355.602V355.074H214.396V355.602ZM194.173 366.424V374.949H188.036V366.424H194.173ZM189.398 367.522V373.821H192.796V367.522H189.398ZM197.762 365.12V370.262H199.872V371.434H197.762V378.245H196.371V365.12H197.762ZM206.302 366.644C206.302 367.889 206.178 369.097 205.833 370.232H207.694V365.457H209.012V377.601H207.694V371.36H205.409C204.676 372.964 203.409 374.393 201.336 375.55L200.545 374.583C202.45 373.521 203.6 372.239 204.251 370.774L200.736 371.141L200.545 369.939L204.647 369.69C204.808 369.083 204.903 368.445 204.955 367.786H201.19V366.644H206.302ZM211.781 365.12V378.245H210.462V365.12H211.781ZM220.526 366.072V367.186H215.619V368.636H220.16V369.734H215.619V371.229C218.248 371.243 219.779 371.199 221.551 370.892L221.698 372.02C219.793 372.327 218.167 372.371 215.296 372.371H214.212V366.072H220.526ZM224.349 365.135V373.206H222.958V365.135H224.349ZM219.955 373.382C222.708 373.382 224.422 374.275 224.422 375.799C224.422 377.337 222.708 378.23 219.955 378.216C217.171 378.23 215.487 377.337 215.487 375.799C215.487 374.275 217.171 373.382 219.955 373.382ZM219.955 374.48C217.992 374.48 216.878 374.964 216.878 375.799C216.878 376.663 217.992 377.146 219.955 377.146C221.874 377.146 223.031 376.663 223.031 375.799C223.031 374.964 221.874 374.48 219.955 374.48Z" fill="#666666"/>
</g>
<g clip-path="url(#clip12_3525_18425)">
<path d="M320.08 362.444C315.547 364.322 310.453 364.322 305.92 362.444L289.408 355.604C284.875 353.727 281.273 350.125 279.396 345.592L272.556 329.08C270.678 324.547 270.678 319.453 272.556 314.92L279.396 298.408C281.273 293.875 284.875 290.273 289.408 288.396L305.92 281.556C310.453 279.678 315.547 279.678 320.08 281.556L336.592 288.396C341.125 290.273 344.727 293.875 346.604 298.408L353.444 314.92C355.322 319.453 355.322 324.547 353.444 329.08L346.604 345.592C344.727 350.125 341.125 353.727 336.592 355.604L320.08 362.444Z" fill="white" stroke="#EDDEFF" stroke-width="3"/>
<path d="M300.203 307.98C300.203 310.119 302.488 312.141 305.007 312.595L304.363 313.752C302.268 313.298 300.334 311.921 299.485 310.075C298.621 311.906 296.694 313.283 294.592 313.752L293.977 312.595C296.467 312.126 298.738 310.119 298.738 307.98V306.984H300.203V307.98ZM305.549 316.359V317.517H293.538V316.359H305.549ZM318.513 316.491V317.678H306.501V316.491H311.775V313.693H307.556V312.595H309.519V308.464H307.527V307.336H317.415V308.464H315.408V312.595H317.371V313.693H313.152V316.491H318.513ZM310.896 312.595H314.045V308.464H310.896V312.595ZM331.477 316.462V317.604H319.465V316.462H331.477ZM330.364 308.142V309.27H326.16C326.218 311.24 328.145 312.866 330.833 313.298L330.276 314.411C328.101 314.023 326.299 312.91 325.457 311.306C324.6 312.91 322.798 314.023 320.637 314.411L320.095 313.298C322.754 312.866 324.68 311.24 324.753 309.27H320.549V308.142H324.768V306.398H326.145V308.142H330.364ZM290.798 324.12V329.438H292.908V330.595H290.798V337.245H289.421V324.12H290.798ZM288.279 326.171V327.313H280.5V326.171H283.738V324.296H285.129V326.171H288.279ZM284.441 328.28C286.316 328.28 287.693 329.54 287.708 331.327C287.693 333.129 286.316 334.374 284.441 334.389C282.551 334.374 281.174 333.129 281.174 331.327C281.174 329.54 282.551 328.28 284.441 328.28ZM284.441 329.423C283.328 329.423 282.493 330.199 282.507 331.327C282.493 332.47 283.328 333.231 284.441 333.217C285.554 333.231 286.375 332.47 286.375 331.327C286.375 330.199 285.554 329.423 284.441 329.423ZM304.407 324.12V337.274H303.015V324.12H304.407ZM297.39 325.102C299.338 325.102 300.774 326.889 300.774 329.701C300.774 332.528 299.338 334.315 297.39 334.315C295.413 334.315 293.992 332.528 293.992 329.701C293.992 326.889 295.413 325.102 297.39 325.102ZM297.39 326.347C296.174 326.347 295.339 327.636 295.339 329.701C295.339 331.781 296.174 333.07 297.39 333.07C298.591 333.07 299.426 331.781 299.426 329.701C299.426 327.636 298.591 326.347 297.39 326.347ZM316.726 324.12V329.247H318.835V330.419H316.726V337.274H315.349V324.12H316.726ZM313.02 325.307V330.126H308.42V332.968C310.676 332.96 312.346 332.88 314.265 332.528L314.397 333.656C312.346 334.037 310.574 334.125 308.113 334.14H307.043V328.998H311.643V326.435H307.014V325.307H313.02ZM330.334 324.12V337.274H328.943V324.12H330.334ZM323.318 325.102C325.266 325.102 326.702 326.889 326.702 329.701C326.702 332.528 325.266 334.315 323.318 334.315C321.34 334.315 319.919 332.528 319.919 329.701C319.919 326.889 321.34 325.102 323.318 325.102ZM323.318 326.347C322.102 326.347 321.267 327.636 321.267 329.701C321.267 331.781 322.102 333.07 323.318 333.07C324.519 333.07 325.354 331.781 325.354 329.701C325.354 327.636 324.519 326.347 323.318 326.347ZM343.079 331.107V332.221H333.938V325.204H342.947V326.332H335.344V328.104H342.668V329.203H335.344V331.107H343.079ZM344.441 334.447V335.59H332.429V334.447H344.441Z" fill="#666666"/>
</g>
<g clip-path="url(#clip13_3525_18425)">
<path d="M370.08 265.444C365.547 267.322 360.453 267.322 355.92 265.444L339.408 258.604C334.875 256.727 331.273 253.125 329.396 248.592L322.556 232.08C320.678 227.547 320.678 222.453 322.556 217.92L329.396 201.408C331.273 196.875 334.875 193.273 339.408 191.396L355.92 184.556C360.453 182.678 365.547 182.678 370.08 184.556L386.592 191.396C391.125 193.273 394.727 196.875 396.604 201.408L403.444 217.92C405.322 222.453 405.322 227.547 403.444 232.08L396.604 248.592C394.727 253.125 391.125 256.727 386.592 258.604L370.08 265.444Z" fill="white" stroke="#EDDEFF" stroke-width="3"/>
<path d="M359.702 201.395V212H358.223L352.847 204.251H352.759V212H351.147V201.395H352.642L358.018 209.158H358.12V201.395H359.702ZM363.965 212L361.021 201.395H362.72L364.785 209.598H364.873L367.026 201.395H368.696L370.85 209.598H370.938L373.003 201.395H374.702L371.758 212H370.132L367.905 204.075H367.817L365.591 212H363.965ZM354.604 220.479C354.604 222.148 355.762 223.745 357.769 224.419L357.065 225.503C355.579 224.99 354.487 223.965 353.916 222.676C353.345 224.097 352.209 225.21 350.664 225.752L349.917 224.668C351.968 223.965 353.198 222.28 353.213 220.464V220.112H350.327V218.984H357.432V220.112H354.604V220.479ZM360.332 218.12V221.489H362.236V222.661H360.332V226.03H358.94V218.12H360.332ZM360.332 226.675V231.245H358.94V227.803H351.66V226.675H360.332ZM366.616 218.721C368.345 218.706 369.678 219.709 369.971 221.182H372.534V218.12H373.926V225.166H372.534V222.324H369.985C369.7 223.833 368.359 224.844 366.616 224.844C364.609 224.844 363.174 223.584 363.174 221.768C363.174 219.98 364.609 218.706 366.616 218.721ZM366.616 219.878C365.371 219.878 364.507 220.64 364.507 221.768C364.507 222.896 365.371 223.672 366.616 223.672C367.832 223.672 368.696 222.896 368.696 221.768C368.696 220.64 367.832 219.878 366.616 219.878ZM366.748 225.796V227.319H372.534V225.796H373.926V231.084H365.371V225.796H366.748ZM366.748 229.941H372.534V228.418H366.748V229.941ZM354.905 237.98V239.108H344.109V237.98H348.826V236.311H350.203V237.98H354.905ZM355.549 246.667V247.795H343.538V246.667H346.614V244.323C345.662 243.906 345.134 243.232 345.134 242.346C345.134 240.778 346.804 239.855 349.514 239.87C352.209 239.855 353.879 240.778 353.879 242.346C353.879 243.232 353.345 243.906 352.4 244.323V246.667H355.549ZM349.514 240.939C347.639 240.939 346.541 241.452 346.555 242.346C346.541 243.225 347.639 243.737 349.514 243.737C351.36 243.737 352.458 243.225 352.458 242.346C352.458 241.452 351.36 240.939 349.514 240.939ZM348.005 246.667H351.038V244.704C350.576 244.785 350.063 244.821 349.514 244.821C348.965 244.821 348.459 244.785 348.005 244.704V246.667ZM362.478 236.267C365.437 236.267 367.166 237.072 367.166 238.522C367.166 239.987 365.437 240.793 362.478 240.793C359.519 240.793 357.791 239.987 357.791 238.522C357.791 237.072 359.519 236.267 362.478 236.267ZM362.478 237.307C360.383 237.321 359.226 237.746 359.241 238.522C359.226 239.343 360.383 239.753 362.478 239.753C364.573 239.753 365.73 239.343 365.73 238.522C365.73 237.746 364.573 237.321 362.478 237.307ZM368.469 241.511V242.624H365.247V243.796H366.96V246.872H359.314V248.044H367.327V249.113H357.952V245.861H365.583V244.836H357.937V243.796H359.68V242.624H356.501V241.511H368.469ZM361.057 243.796H363.855V242.624H361.057V243.796ZM379.749 236.12V241.613H381.726V242.785H379.749V249.245H378.357V236.12H379.749ZM369.304 245.671C370.337 245.671 371.538 245.671 372.791 245.627V244.294C371.311 244.089 370.344 243.195 370.359 241.921C370.344 240.441 371.619 239.46 373.494 239.46C375.354 239.46 376.643 240.441 376.658 241.921C376.643 243.195 375.662 244.096 374.182 244.309V245.568C375.347 245.524 376.519 245.429 377.61 245.275L377.698 246.301C374.856 246.813 371.78 246.828 369.524 246.828L369.304 245.671ZM377.419 237.673V238.786H369.553V237.673H372.791V236.149H374.182V237.673H377.419ZM373.494 240.544C372.395 240.544 371.663 241.086 371.663 241.921C371.663 242.756 372.395 243.269 373.494 243.269C374.592 243.269 375.325 242.756 375.325 241.921C375.325 241.086 374.592 240.544 373.494 240.544Z" fill="#666666"/>
</g>
<g clip-path="url(#clip14_3525_18425)">
<path d="M348.08 157.444C343.547 159.322 338.453 159.322 333.92 157.444L317.408 150.604C312.875 148.727 309.273 145.125 307.396 140.592L300.556 124.08C298.678 119.547 298.678 114.453 300.556 109.92L307.396 93.4079C309.273 88.8749 312.875 85.2734 317.408 83.3958L333.92 76.5561C338.453 74.6784 343.547 74.6784 348.08 76.5561L364.592 83.3958C369.125 85.2734 372.727 88.8749 374.604 93.4079L381.444 109.92C383.322 114.453 383.322 119.547 381.444 124.08L374.604 140.592C372.727 145.125 369.125 148.727 364.592 150.604L348.08 157.444Z" fill="white" stroke="#EDDEFF" stroke-width="3"/>
<path d="M312.089 111.102C314.052 111.102 315.444 112.889 315.458 115.701C315.444 118.528 314.052 120.315 312.089 120.315C310.126 120.315 308.72 118.528 308.735 115.701C308.72 112.889 310.126 111.102 312.089 111.102ZM312.089 112.347C310.888 112.347 310.068 113.636 310.068 115.701C310.068 117.781 310.888 119.07 312.089 119.07C313.305 119.07 314.125 117.781 314.125 115.701C314.125 113.636 313.305 112.347 312.089 112.347ZM318.798 110.12V115.262H320.908V116.434H318.798V123.245H317.407V110.12H318.798ZM332.407 110.12V123.274H331.015V110.12H332.407ZM325.39 111.102C327.338 111.102 328.774 112.889 328.774 115.701C328.774 118.528 327.338 120.315 325.39 120.315C323.413 120.315 321.992 118.528 321.992 115.701C321.992 112.889 323.413 111.102 325.39 111.102ZM325.39 112.347C324.174 112.347 323.339 113.636 323.339 115.701C323.339 117.781 324.174 119.07 325.39 119.07C326.591 119.07 327.426 117.781 327.426 115.701C327.426 113.636 326.591 112.347 325.39 112.347ZM346.484 115.496V116.609H334.501V115.496H346.484ZM345.063 113.431V114.544H336.069V110.501H344.931V111.629H337.46V113.431H345.063ZM344.96 117.649V120.828H337.314V122H345.327V123.099H335.952V119.803H343.583V118.719H335.937V117.649H344.96ZM359.726 115.276V116.419H357.69V123.23H356.298V110.12H357.69V115.276H359.726ZM349.34 111.395V118.777C351.171 118.777 353.083 118.624 355.17 118.191L355.332 119.363C353.09 119.817 351.01 119.935 349.047 119.935H347.963V111.395H349.34ZM370.654 110.12V115.247H372.763V116.419H370.654V123.274H369.277V110.12H370.654ZM366.948 111.307V116.126H362.348V118.968C364.604 118.96 366.274 118.88 368.193 118.528L368.325 119.656C366.274 120.037 364.501 120.125 362.041 120.14H360.971V114.998H365.571V112.435H360.942V111.307H366.948Z" fill="#666666"/>
</g>
<g clip-path="url(#clip15_3525_18425)">
<path d="M264.08 88.4439C259.547 90.3216 254.453 90.3216 249.92 88.4439L233.408 81.6042C228.875 79.7266 225.273 76.1251 223.396 71.5921L216.556 55.0796C214.678 50.5466 214.678 45.4534 216.556 40.9203L223.396 24.4079C225.273 19.8749 228.875 16.2734 233.408 14.3958L249.92 7.55606C254.453 5.67843 259.547 5.67843 264.08 7.55607L280.592 14.3958C285.125 16.2734 288.727 19.8749 290.604 24.4079L297.444 40.9204C299.322 45.4534 299.322 50.5466 297.444 55.0796L290.604 71.5921C288.727 76.1251 285.125 79.7266 280.592 81.6042L264.08 88.4439Z" fill="white" stroke="#EDDEFF" stroke-width="3"/>
<path d="M248.729 32.1348V39.7227H247.411V32.1348H248.729ZM246.166 32.3838V39.5615H244.847V36.4414H243.221V38.7998H238.094V33.0723H243.221V35.2842H244.847V32.3838H246.166ZM239.398 34.1562V37.7451H241.932V34.1562H239.398ZM248.729 40.3232V45.084H239.969V40.3232H248.729ZM241.332 41.4219V43.9561H247.367V41.4219H241.332ZM261.444 32.1201V45.2744H260.067V38.0527H257.167V42.0225H251.014V33.1309H252.42V36.4854H255.804V33.1309H257.167V36.9102H260.067V32.1201H261.444ZM252.42 40.8799H255.804V37.584H252.42V40.8799ZM270.13 33.9805C270.13 36.1191 272.416 38.1406 274.935 38.5947L274.291 39.752C272.196 39.2979 270.262 37.9209 269.413 36.0752C268.548 37.9062 266.622 39.2832 264.52 39.752L263.905 38.5947C266.395 38.126 268.666 36.1191 268.666 33.9805V32.9844H270.13V33.9805ZM275.477 42.3594V43.5166H263.465V42.3594H275.477ZM244.32 62H242.606L246.415 51.3945H248.275L252.098 62H250.384L249.417 59.2021H245.287L244.32 62ZM245.755 57.8545H248.949L247.381 53.3281H247.308L245.755 57.8545ZM253.446 62V51.3945H257.225C259.686 51.3945 260.902 52.874 260.902 54.8369C260.902 56.7852 259.686 58.2793 257.225 58.2793H255.057V62H253.446ZM255.057 56.9023H257.064C258.631 56.9023 259.276 56.0234 259.276 54.8369C259.276 53.6357 258.631 52.7715 257.064 52.7715H255.057V56.9023ZM262.601 62V51.3945H266.38C268.841 51.3945 270.057 52.874 270.057 54.8369C270.057 56.7852 268.841 58.2793 266.38 58.2793H264.212V62H262.601ZM264.212 56.9023H266.219C267.787 56.9023 268.431 56.0234 268.431 54.8369C268.431 53.6357 267.787 52.7715 266.219 52.7715H264.212V56.9023Z" fill="#666666"/>
</g>
<g clip-path="url(#clip16_3525_18425)">
<path d="M151.08 90.4439C146.547 92.3216 141.453 92.3216 136.92 90.4439L120.408 83.6042C115.875 81.7266 112.273 78.1251 110.396 73.5921L103.556 57.0796C101.678 52.5466 101.678 47.4534 103.556 42.9203L110.396 26.4079C112.273 21.8749 115.875 18.2734 120.408 16.3958L136.92 9.55606C141.453 7.67843 146.547 7.67843 151.08 9.55607L167.592 16.3958C172.125 18.2734 175.727 21.8749 177.604 26.4079L184.444 42.9204C186.322 47.4534 186.322 52.5466 184.444 57.0796L177.604 73.5921C175.727 78.1251 172.125 81.7266 167.592 83.6042L151.08 90.4439Z" fill="white" stroke="#EDDEFF" stroke-width="3"/>
<path d="M137.35 44.3945H138.961V51.3672C138.961 53.5938 137.292 55.1758 134.757 55.1758C132.194 55.1758 130.539 53.5938 130.539 51.3672V44.3945H132.15V51.2354C132.15 52.6709 133.146 53.7109 134.757 53.7109C136.354 53.7109 137.35 52.6709 137.35 51.2354V44.3945ZM144.103 53.2129V50.415H141.305V49.0088H144.103V46.2109H145.509V49.0088H148.322V50.415H145.509V53.2129H144.103ZM160.583 43.5156V44.6289C160.583 45.7861 160.583 47.0898 160.216 48.7891L158.839 48.7012C158.986 48.0127 159.074 47.4048 159.132 46.8408L151.325 47.207L151.134 46.0498L159.191 45.8301C159.206 45.4126 159.206 45.0244 159.206 44.6436H151.471V43.5156H160.583ZM162.018 49.4922V50.6055H150.08V49.4922H154.811V47.793H156.217V49.4922H162.018ZM160.568 51.8506V56.1865H159.162V52.9639H151.339V51.8506H160.568Z" fill="#666666"/>
</g>
<defs>
<linearGradient id="paint0_linear_3525_18425" x1="253.148" y1="123" x2="127" y2="123" gradientUnits="userSpaceOnUse">
<stop stop-color="#9E4EFF"/>
<stop offset="1" stop-color="#FF19F5"/>
</linearGradient>
<clipPath id="clip0_3525_18425">
<rect width="21.2812" height="46.9959" fill="white" transform="translate(91.9648 150.351) rotate(-62.0894)"/>
</clipPath>
<clipPath id="clip1_3525_18425">
<rect width="21.2812" height="46.9959" fill="white" transform="translate(149.352 90.8613) rotate(-22.923)"/>
</clipPath>
<clipPath id="clip2_3525_18425">
<rect width="21.2812" height="46.9959" fill="white" transform="translate(234.117 82) rotate(20.0558)"/>
</clipPath>
<clipPath id="clip3_3525_18425">
<rect width="21.2812" height="46.9959" fill="white" transform="translate(296.822 123.461) rotate(50.3175)"/>
</clipPath>
<clipPath id="clip4_3525_18425">
<rect width="21.2812" height="46.9959" fill="white" transform="translate(322.617 208.918) rotate(98.4651)"/>
</clipPath>
<clipPath id="clip5_3525_18425">
<rect width="21.2812" height="46.9959" fill="white" transform="translate(291.553 281.064) rotate(137.365)"/>
</clipPath>
<clipPath id="clip6_3525_18425">
<rect width="21.2812" height="46.9959" fill="white" transform="translate(141.258 303.184) rotate(-150.327)"/>
</clipPath>
<clipPath id="clip7_3525_18425">
<rect width="21.2812" height="46.9959" fill="white" transform="translate(89.1816 235.894) rotate(-109.725)"/>
</clipPath>
<clipPath id="clip8_3525_18425">
<rect width="93" height="90" fill="white" transform="translate(17 75)"/>
</clipPath>
<clipPath id="clip9_3525_18425">
<rect width="93" height="90" fill="white" transform="translate(0 188)"/>
</clipPath>
<clipPath id="clip10_3525_18425">
<rect width="93" height="90" fill="white" transform="translate(57 285)"/>
</clipPath>
<clipPath id="clip11_3525_18425">
<rect width="93" height="90" fill="white" transform="translate(162 318)"/>
</clipPath>
<clipPath id="clip12_3525_18425">
<rect width="93" height="90" fill="white" transform="translate(268 277)"/>
</clipPath>
<clipPath id="clip13_3525_18425">
<rect width="93" height="90" fill="white" transform="translate(318 180)"/>
</clipPath>
<clipPath id="clip14_3525_18425">
<rect width="93" height="90" fill="white" transform="translate(296 72)"/>
</clipPath>
<clipPath id="clip15_3525_18425">
<rect width="93" height="90" fill="white" transform="translate(212 3)"/>
</clipPath>
<clipPath id="clip16_3525_18425">
<rect width="93" height="90" fill="white" transform="translate(99 5)"/>
</clipPath>
</defs>
</svg>
