<svg width="90" height="90" viewBox="0 0 90 90" fill="none" xmlns="http://www.w3.org/2000/svg">
<rect width="90" height="90" rx="30" fill="#9E4EFF"/>
<g clip-path="url(#clip0_36_2301)">
<path d="M57.1937 52.0233L57.2435 52.0731L57.2971 52.1187L60.9042 55.1876C62.7134 57.046 62.6982 60.0193 60.8586 61.859C59.0189 63.6986 56.0456 63.7138 54.1872 61.9046L51.1183 58.2975L51.0727 58.2439L51.023 58.1942C47.4205 54.5912 41.5797 54.5914 37.9769 58.1941L37.9271 58.2439L37.8815 58.2975L34.8126 61.9046C32.9542 63.7138 29.9809 63.6986 28.1412 61.859C26.3016 60.0193 26.2864 57.046 28.0956 55.1876L31.7027 52.1187L31.7563 52.0731L31.8061 52.0233C35.4089 48.4205 35.4089 42.5797 31.8061 38.9769L31.7563 38.9271L31.7027 38.8815L28.0956 35.8126C26.2864 33.9542 26.3016 30.9809 28.1412 29.1412C29.9809 27.3016 32.9542 27.2864 34.8126 29.0956L37.8815 32.7027L37.9271 32.7563L37.9768 32.806C41.5793 36.409 47.4201 36.4088 51.0229 32.8061L51.0727 32.7563L51.1183 32.7027L54.1872 29.0956C56.0456 27.2864 59.0189 27.3016 60.8586 29.1412C62.6982 30.9809 62.7134 33.9542 60.9042 35.8126L57.2971 38.8815L57.2435 38.9271L57.1937 38.9769C53.5909 42.5797 53.5909 48.4205 57.1937 52.0233Z" stroke="white" stroke-width="3.5"/>
</g>
<defs>
<clipPath id="clip0_36_2301">
<rect width="39" height="39" fill="white" transform="translate(25 26)"/>
</clipPath>
</defs>
</svg>
