<svg width="104" height="28" viewBox="0 0 104 28" fill="none" xmlns="http://www.w3.org/2000/svg">
<g clip-path="url(#clip0_182_2329)">
<path d="M13.96 0C6.25357 0 0.00219727 6.26953 0.00219727 14.0016C0.00219727 21.7337 6.25357 28 13.96 28C21.6665 28 27.9211 21.724 27.9211 14.0016C27.9211 6.27928 21.6697 0 13.96 0Z" fill="#C40452"/>
<path d="M25.685 13.4427V14.005C25.685 20.4922 20.4382 25.7607 13.9568 25.7607C7.47531 25.7607 2.23828 20.4922 2.23828 14.0017C2.23828 7.51116 7.49151 2.24268 13.96 2.24268H14.5207V3.36723H13.96C8.11373 3.36723 3.35309 8.12544 3.35309 14.005C3.35309 19.8845 8.11373 24.6427 13.96 24.6427C19.8063 24.6427 24.2655 20.1802 24.5669 14.5607H17.3174V13.4427H25.6882H25.685ZM13.3929 7.83943V20.1607H17.3142V19.0329H14.5174V7.83943H13.3896H13.3929ZM7.82206 9.51975C7.82206 10.4558 8.57716 11.2001 9.49752 11.2001C10.4179 11.2001 11.1665 10.4558 11.1665 9.51975C11.1665 8.58371 10.4179 7.83943 9.49752 7.83943C8.57716 7.83943 7.82206 8.59021 7.82206 9.51975Z" fill="white"/>
<path d="M39.3543 5.60318H34.895V22.3999H47.0056V18.7338H39.3575V5.60318H39.3543ZM56.3811 15.8834H59.7741C59.7741 15.8834 59.8033 19.6178 56.3065 19.6178C55.4089 19.6178 54.6214 19.296 54.0089 18.6883C53.0658 17.736 52.5667 16.1304 52.5667 14.0471C52.5667 10.6084 53.9278 8.55106 56.2126 8.55106C57.6385 8.55106 58.7144 9.42535 58.9964 10.7547H63.7051C63.4556 8.81758 62.9274 7.81003 61.6311 6.78623C60.2538 5.70719 58.4584 5.16116 56.3163 5.16116C53.7982 5.16116 51.6788 5.9412 50.2075 7.41351C48.6649 8.95083 47.8482 11.2292 47.8482 13.9788C47.8482 16.9267 48.7232 19.3968 50.2788 20.9666C51.5103 22.1919 53.1241 22.842 55.0005 22.842C59.1001 22.842 60.0496 20.3783 60.0496 20.3783V22.3967H63.744V12.9063H56.3778V15.8834H56.3811ZM98.3518 5.60318V0.896973H94.5731V5.60318H89.887V9.39935H94.5731V14.0958H98.3518V9.39935H103.038V5.60318H98.3518ZM82.281 15.3179C82.281 17.6612 81.7917 19.218 79.3741 19.218C77.4588 19.218 76.5676 18.0545 76.5676 15.5519V5.60318H72.131V15.8834C72.131 20.3621 74.7269 22.8257 79.4259 22.8257C84.125 22.8257 86.7305 20.4108 86.7305 15.8314V5.59993H82.281V15.3146V15.3179Z" fill="#6D6E71"/>
</g>
<defs>
<clipPath id="clip0_182_2329">
<rect width="103.04" height="28" fill="white"/>
</clipPath>
</defs>
</svg>
