<svg width="170" height="37" viewBox="0 0 170 37" fill="none" xmlns="http://www.w3.org/2000/svg">
<path d="M30.3841 0.5H0.5V36.5H30.3841V21.3618L24.8234 18.5024L30.3841 15.643V0.5ZM9.25031 27.965V20.1364L21.6338 26.504V27.9698H9.25031V27.965ZM9.25031 16.8588V9.03024H21.6338V10.496L9.25031 16.8636V16.8588Z" fill="#EB148D"/>
<path d="M150.445 0.5V20.7275L139.309 0.5H129.311V36.5H138.061V16.2725L149.193 36.5H159.195V0.5H150.445Z" fill="#EB148D"/>
<path d="M53.0547 9.03138V0.5H36.5669V9.03138H40.7314V27.9686H36.5669V36.5H53.0547V27.9686H48.8902V9.03138H53.0547Z" fill="#EB148D"/>
<path d="M94.2744 0.5V36.5H123.128V0.5H94.2744ZM102.723 27.9698V9.03024H114.68V27.9698H102.723Z" fill="#EB148D"/>
<path d="M88.0914 0.5H59.2378V13.2466H67.6878V9.03138H76.6423L59.2378 27.8485V36.5H88.0914V23.7534H79.6415V27.9686H70.6869L88.0914 9.15154V0.5Z" fill="#EB148D"/>
</svg>
