<svg width="20" height="21" viewBox="0 0 20 21" fill="none" xmlns="http://www.w3.org/2000/svg">
<path fill-rule="evenodd" clip-rule="evenodd" d="M13.75 10.5C13.75 12.5711 12.0711 14.25 10 14.25C7.92893 14.25 6.25 12.5711 6.25 10.5C6.25 8.42893 7.92893 6.75 10 6.75C12.0711 6.75 13.75 8.42893 13.75 10.5ZM12.25 10.5C12.25 11.7426 11.2426 12.75 10 12.75C8.75736 12.75 7.75 11.7426 7.75 10.5C7.75 9.25736 8.75736 8.25 10 8.25C11.2426 8.25 12.25 9.25736 12.25 10.5Z" fill="#A8B3BD"/>
<path fill-rule="evenodd" clip-rule="evenodd" d="M10 16.5C2.63636 16.5 1 10.5 1 10.5C1 10.5 2.63636 4.5 10 4.5C17.3636 4.5 19 10.5 19 10.5C19 10.5 17.3636 16.5 10 16.5ZM2.72446 10.7914C2.67331 10.6842 2.62999 10.5864 2.59383 10.5C2.62999 10.4136 2.67331 10.3158 2.72446 10.2086C2.94658 9.7432 3.30877 9.11817 3.86116 8.49496C4.93443 7.28409 6.78843 6 10 6C13.2116 6 15.0656 7.28409 16.1388 8.49496C16.6912 9.11817 17.0534 9.7432 17.2755 10.2086C17.3267 10.3158 17.37 10.4136 17.4062 10.5C17.37 10.5864 17.3267 10.6842 17.2755 10.7914C17.0534 11.2568 16.6912 11.8818 16.1388 12.505C15.0656 13.7159 13.2116 15 10 15C6.78843 15 4.93443 13.7159 3.86116 12.505C3.30877 11.8818 2.94658 11.2568 2.72446 10.7914Z" fill="#A8B3BD"/>
</svg>
