<svg width="24" height="24" viewBox="0 0 24 24" fill="none" xmlns="http://www.w3.org/2000/svg">
<path fill-rule="evenodd" clip-rule="evenodd" d="M14.069 9.74031L12 5.53282L9.9311 9.74031L5.28682 10.4176L8.64804 13.706L7.85646 18.3382L12 16.1518L16.1436 18.3382L15.352 13.706L18.7132 10.4176L14.069 9.74031ZM8.60084 7.91316L2.99911 8.73012C2.18003 8.84958 1.85242 9.8556 2.4441 10.4345L6.50003 14.4025L5.54335 20.0008C5.40367 20.8182 6.26232 21.4407 6.99574 21.0537L12 18.4132L17.0043 21.0537C17.7377 21.4407 18.5964 20.8182 18.4567 20.0008L17.5 14.4025L21.556 10.4345C22.1476 9.8556 21.82 8.84958 21.0009 8.73012L15.3992 7.91316L12.8974 2.82534C12.5311 2.08036 11.469 2.08036 11.1027 2.82534L8.60084 7.91316Z" fill="#7F8A94"/>
</svg>
